# xmcd
#
# Track frame offsets: 
#        150
#        14983
#        25265
#        41969
#        56403
#        67757
#        78443
#        94507
#        116269
#        137807
#        155974
#
# Disc length: 2273 seconds
#
# Revision: 0
# Processed by: cddbd v1.5.2PL0 Copyright (c) Steve Scherf et al.
# Submitted via: ExactAudioCopyFreeDBPlugin 1.0
#
DISCID=9108df0b
DTITLE=Adam Schlenker - A Matter Of Time
DYEAR=2018
DGENRE=Bluegrass
TTITLE0=I Wonder Where You Are Tonight
TTITLE1=Billy In The Low Ground
TTITLE2=A Shooting Star
TTITLE3=Elzic's Farewell
TTITLE4=You'll Never Get To Far
TTITLE5=Over The Waterfall-Forked Deer
TTITLE6=A Wonderful Life
TTITLE7=Bedford Falls Waltz
TTITLE8=Waiting On A Train
TTITLE9=Bill Cheatham
TTITLE10=Slow Us Down
EXTD=
EXTT0=
EXTT1=
EXTT2=
EXTT3=
EXTT4=
EXTT5=
EXTT6=
EXTT7=
EXTT8=
EXTT9=
EXTT10=
PLAYORDER=
